<?xml version="1.0" encoding="utf-8"?>
<!-- Generator: Adobe Illustrator 19.1.0, SVG Export Plug-In . SVG Version: 6.00 Build 0)  -->
<!DOCTYPE svg PUBLIC "-//W3C//DTD SVG 1.1//EN" "http://www.w3.org/Graphics/SVG/1.1/DTD/svg11.dtd">
<svg version="1.1" id="Layer_1" xmlns="http://www.w3.org/2000/svg" xmlns:xlink="http://www.w3.org/1999/xlink" x="0px" y="0px"
	 viewBox="0 0 148.6 363.8" style="enable-background:new 0 0 148.6 363.8;" xml:space="preserve">
<style type="text/css">
	.st0{fill:#6DCFF6;stroke:#6DCFF6;stroke-miterlimit:10;}
	.st1{fill:#00AEEF;stroke:#00AEEF;stroke-miterlimit:10;}
	.st2{fill:#00AEEF;}
	.st3{fill:none;stroke:#00AEEF;stroke-width:3.5;stroke-linecap:round;stroke-miterlimit:10;}
	.st4{fill:#BE1E2D;}
	.st5{fill:none;stroke:#00AEEF;stroke-width:2;stroke-linecap:round;stroke-linejoin:round;stroke-miterlimit:10;}
	.st6{fill:#ED1C24;}
</style>
<g>
	<g>
		<polyline class="st0" points="49,25.3 43,22.3 42.7,26.4 40.8,30 44.6,30.6 		"/>
		<polyline class="st0" points="90.9,25.9 96.2,22.8 96.4,27.3 98.9,27.5 97.5,29.7 93.4,30 		"/>
		<path class="st0" d="M94.1,39.5c0,0,4.9,27.5-0.7,38.7c0,0-2.1,12,3.5,16.2c0,0,15.5,16.9,15.5,38.7c0,0-18.3-31.7-38-19.7
			c0,0-14.1,4.2-27.5,16.2c0,0.1,1.1-29.4,13.4-36.6c0,0,15.5-8.7,21.9-17.8C82.2,75.2,90.6,67,94.1,39.5z"/>
		<path class="st0" d="M42.5,239.8c0,0,7.8,48.4-8.4,89.1c0,0-9.7,22-16.8,24.5c0,0-9,5.2,3.2,5.2c0,0,18.1,1.9,18.7-5.2
			c0,0,0.6-36.8,18.7-43.3c0,0,16.4-7.1,27.3-0.1c19.4,12.6,12.8,41.7,17.3,46.8c3,3.4,19.5,3.4,22.8,3c3.2-0.5-5.6-3.3-4.6-5.3
			c1.7-3.7-2.1-64.9-2.1-67.5c0,0,0.7-34.5-4.5-51.9c0,0-23.9,53.8-42.6,44.7C71.6,279.8,50.9,277.3,42.5,239.8z"/>
		<path class="st0" d="M31.9,196.8c0,0-1.3-32.9,3.9-49.7c0,0-7.1,1.3-9,7.8C26.7,154.8,28.7,188.4,31.9,196.8z"/>
		<path class="st0" d="M121,194.1c0,0,1.8-19.8-2.7-34c0,0,0.6,32.3-3.8,36.7C110,201.2,118.9,201.2,121,194.1z"/>
	</g>
	<path class="st1" d="M65.2,47.3c0,0,1.1-5.6,5.9-5.7c0,0,6.6-0.3,7,5.2c0,0,0.1,1.6-1.2,0.7c0,0-0.9-1.5-2.1-1.8c0,0-2.5,0.3,0,3.6
		c0,0,1,0.9-0.4,1.3c0,0-1.1,0.4-1.7,0c0,0-0.7,0.6-1.7,0.2c0,0-1.3-0.2-0.7-1.3c0,0,1.9-4.2,0-3.7c0,0-2.4,0.3-2.2,1.9
		c0,0,0.2,1.7-1.2,1.8C66.8,49.4,64.9,49.9,65.2,47.3z"/>
	<path class="st2" d="M80.3,31.8c-0.6,0-1.1,0.4-1.3,0.9c-0.5,0.9-1.2,2.7-0.2,3.9c0,0,1.1,1.5,2.9,0.8c0,0,3.1-1.2,1.9-3.5
		C83.5,33.9,82.2,31.8,80.3,31.8z"/>
	<path class="st2" d="M60,32.4c0,0,1.5,0,1.6,1.5c0,0,0.8,2.6-0.1,3.4c0,0-1.1,0.9-2.4,0.6c0,0-2.3-0.3-2.4-2.1c0,0-0.2-2,0.8-2.8
		C57.5,33.1,58.6,32.1,60,32.4z"/>
	<path class="st3" d="M75.4,56.7c0,0-3-3.3-6.8,0.9"/>
	<path class="st4" d="M76.9,4.7c0,2.6-2.3,2.8-5,2.8c-2.6,0-4.5-0.2-4.5-2.8S69.5,0,72.1,0S76.9,2.1,76.9,4.7z"/>
	<g>
		<path class="st5" d="M41.7,352.6c0.9-8.3,3.1-24,6.9-31.3c0.2-0.3,0.4-0.6,0.6-0.9c2.3-2.4,13.1-11,21.4-10.5
			c0,0,16.4-1.1,20.7,10.9c0,0,6.4,18.4,6.6,35.7c0,2.7,2.1,4.9,4.7,5.2c9.1,1,27.6,2.5,26.8-1.7c0,0,0.4-2.8-3.1-5.6
			c-1-0.8-1.6-2.1-1.5-3.4c1-13.5-2.5-87.2-6.1-105.3c-0.1-0.2-0.2-0.5-0.2-0.7c0.3-3.6-1.8-17.3,1.6-22.3c0,0,6.7-6.7,4.2-48.6
			c0,0,0-65.3-20.9-78.7c0,0-5-4.2-5-16.8c0,0,4.7-52.3-13.4-57c0,0-26.8-9.2-39.4,7.5c0,0-10.1,23.5-10.1,49.4
			c0,0,0,11.7-14.2,26.8c0,0-20.1,12.6-18.4,81.3c0,0,0.8,40.2,12.6,48.6c0,0-4.9,37.1-1.8,110.4c0,1.1-0.5,2.1-1.4,2.7
			c-2.1,1.3-5.5,4.2-4.3,8c0.7,2.2,2.8,3.8,5.1,4c4.6,0.5,14.2,1.2,21.4-0.1C38.4,359.7,41.3,356.5,41.7,352.6z"/>
		<path class="st5" d="M15.5,235.4c0,0,20.1,5.9,22.6-4.2c0,0,4.9-14.7-3.1-31.2c-0.2-0.4-0.3-0.8-0.3-1.2
			c-0.1-4.4-0.5-30.3,2.5-47.1"/>
		<path class="st5" d="M120.2,222.8c0,0-9.2,25.1-26,12.6c0,0-20.4-12.2-1.6-36.7c0.5-0.6,0.8-1.4,0.8-2.1c0.1-5.2,0.6-26,5-39.9"/>
		<path class="st5" d="M87.9,22.8c0.1,0.1,8.2-6.8,12.2-1.1c0,0,6.5,6.5-4.1,14.2"/>
		<path class="st5" d="M53,22.5c0,0-9.2-8.7-14-1.4c0,0-5.3,10.6,3.4,15.9"/>
	</g>
	<path class="st6" d="M47.8,25.5c0,0,5-19.2,25.2-19.4c0,0,16.8,1.5,19.8,19.6"/>
	<path class="st6" d="M3.3,205.1c0,0,0.5,38.3,23.7,33.6c0,0,26.1,1.6,10.8-37.6"/>
	<path class="st6" d="M92.9,196.3c0,0-23.4,28.2-0.6,40.4c0,0,20.1,20.3,31.6-20.8"/>
	<path class="st4" d="M35.8,202.4c0,0,10.8-7.6-1.9-10.8c0,0-22.2,0.6-31.1,5.7c0,0-7,7,1.3,8.9C4,206.2,19.3,206.2,35.8,202.4z"/>
	<path class="st4" d="M121.4,216.6c0,0,14.1,1.4,5.2-9.9c0,0-19.6-14.8-30.5-17c0,0-10.4,0.7-4.5,7.9
		C91.6,197.7,104.8,208.2,121.4,216.6z"/>
	<path class="st4" d="M39.5,37.8c0.3,2.5,1.3,6.4,4.8,4c0.5-0.4,1-0.9,1.3-1.4c2.5-3.8,16.1-21.8,42.2-9.6c0.7,0.3,1.4,0.9,1.9,1.5
		c1.3,1.7,4.1,5.3,5.6,8.2c0.5,1.1,1.4,2,2.4,2.4c1.5,0.7,3.3,0.7,3.3-3.2c0-0.3,0-0.5-0.1-0.8c-0.4-2.2-2.5-11.6-13.9-18.5
		c-0.4-0.2-0.7-0.4-1.2-0.5c-3.1-1-17.3-4.8-33.6,2.2c-0.3,0.1-0.6,0.3-0.9,0.5c-1.6,1.1-7.4,5.2-11.2,12
		C39.6,35.5,39.4,36.7,39.5,37.8z"/>
	<path class="st4" d="M36.7,58.6c0,0-5.4-7.4-6.1,16.8c0,0,0.6,5.2-1.5,7.6c-0.5,0.6-0.9,1.2-1.2,1.9c-1.1,2.6-2.9,8.1,2,8
		c0,0,51.2,7.7,73.4,2.5c0,0,7.4-0.5,4-5.9c0,0-5.4-15.5-2-20.9c0,0,4.7-14.8-6.1-8.8C99.4,60,86.6,74.1,36.7,58.6z"/>
	<path class="st4" d="M84.8,97.9c0,0,29.4,24.7,23.8,50.9c0,0,20.8-5.4,16.5,8.1c0,0-1.7,7,5.6,7c0,0,11.5-11.2-27.1-84.5"/>
	<path class="st4" d="M102,72.4c0,0,38.6,9.6,46.6,46.8c0,0-6-1.4-8,10.7c0,0-0.6,9.3-7.4,8.5c0,0,7.5-30.7-30.6-49.7"/>
</g>
</svg>
